<svg xmlns="http://www.w3.org/2000/svg" width="800" height="260" style="font-family:Segoe UI,PingFang SC,sans-serif"><rect width="800" height="260" rx="12" fill="#141a2b"/><text x="70" y="18" fill="#e6e9f2" font-size="14" font-weight="bold">⭐ Star 增长趋势 · 当前 6</text><line x1="70" y1="220.0" x2="780" y2="220.0" stroke="#232b40"/><text x="62" y="224.0" fill="#8b93a7" font-size="11" text-anchor="end">0</text><line x1="70" y1="156.7" x2="780" y2="156.7" stroke="#232b40"/><text x="62" y="160.7" fill="#8b93a7" font-size="11" text-anchor="end">2</text><line x1="70" y1="93.3" x2="780" y2="93.3" stroke="#232b40"/><text x="62" y="97.3" fill="#8b93a7" font-size="11" text-anchor="end">4</text><line x1="70" y1="30.0" x2="780" y2="30.0" stroke="#232b40"/><text x="62" y="34.0" fill="#8b93a7" font-size="11" text-anchor="end">6</text><polyline points="70.0,220.0 212.0,188.3 354.0,156.7 496.0,125.0 638.0,61.7 780.0,30.0" fill="none" stroke="#6c8cff" stroke-width="2.5"/><circle cx="70.0" cy="220.0" r="3.5" fill="#6c8cff"/><circle cx="212.0" cy="188.3" r="3.5" fill="#6c8cff"/><circle cx="354.0" cy="156.7" r="3.5" fill="#6c8cff"/><circle cx="496.0" cy="125.0" r="3.5" fill="#6c8cff"/><circle cx="638.0" cy="61.7" r="3.5" fill="#6c8cff"/><circle cx="780.0" cy="30.0" r="3.5" fill="#6c8cff"/><text x="70.0" y="246" fill="#8b93a7" font-size="11" text-anchor="middle">2026-02-26</text><text x="496.0" y="246" fill="#8b93a7" font-size="11" text-anchor="middle">2026-04-18</text><text x="780.0" y="246" fill="#8b93a7" font-size="11" text-anchor="middle">2026-08-22</text><text x="780" y="246" fill="#8b93a7" font-size="11" text-anchor="end">由 GitHub Actions 每日自动更新</text></svg>